<mxfile host="65bd71144e">
    <diagram id="XYudDsalHz4EEedXDKOo" name="Page-1">
        <mxGraphModel dx="1582" dy="604" grid="1" gridSize="10" guides="1" tooltips="1" connect="1" arrows="1" fold="0" page="1" pageScale="1" pageWidth="850" pageHeight="1100" background="#ffffff" math="0" shadow="0">
            <root>
                <mxCell id="0"/>
                <mxCell id="1" parent="0"/>
                <mxCell id="14" value="" style="verticalLabelPosition=bottom;verticalAlign=top;html=1;shadow=0;dashed=0;strokeWidth=1;shape=mxgraph.android.phone2;strokeColor=#c0c0c0;fontSize=16;container=1;movable=1;resizable=1;rotatable=1;deletable=1;editable=1;connectable=1;backgroundOutline=0;expand=1;recursiveResize=0;" parent="1" vertex="1">
                    <mxGeometry x="120" width="280" height="560" as="geometry"/>
                </mxCell>
                <mxCell id="16" value="" style="rounded=0;whiteSpace=wrap;html=1;fontSize=16;container=1;movable=1;resizable=1;rotatable=1;deletable=1;editable=1;connectable=1;" parent="14" vertex="1">
                    <mxGeometry x="80" y="80" width="130" height="100" as="geometry"/>
                </mxCell>
                <mxCell id="17" value="&lt;font style=&quot;font-size: 24px;&quot;&gt;Logo&lt;/font&gt;" style="text;html=1;strokeColor=none;fillColor=none;align=center;verticalAlign=middle;whiteSpace=wrap;rounded=0;fontSize=16;movable=1;resizable=1;rotatable=1;deletable=1;editable=1;connectable=1;" parent="16" vertex="1">
                    <mxGeometry x="9.204464285714286" width="110.49999999999999" height="84.525" as="geometry"/>
                </mxCell>
                <mxCell id="19" value="" style="rounded=0;whiteSpace=wrap;html=1;fontSize=24;container=1;movable=1;resizable=1;rotatable=1;deletable=1;editable=1;connectable=1;" parent="14" vertex="1">
                    <mxGeometry x="40" y="300" width="200" height="30" as="geometry"/>
                </mxCell>
                <mxCell id="23" value="&lt;font style=&quot;font-size: 14px;&quot;&gt;Username&lt;/font&gt;" style="text;html=1;strokeColor=none;fillColor=none;align=center;verticalAlign=middle;whiteSpace=wrap;rounded=0;fontSize=24;movable=1;resizable=1;rotatable=1;deletable=1;editable=1;connectable=1;" parent="19" vertex="1">
                    <mxGeometry x="10" width="60" height="30" as="geometry"/>
                </mxCell>
                <mxCell id="20" value="" style="rounded=0;whiteSpace=wrap;html=1;fontSize=24;container=1;movable=1;resizable=1;rotatable=1;deletable=1;editable=1;connectable=1;" parent="14" vertex="1">
                    <mxGeometry x="40" y="350" width="200" height="30" as="geometry"/>
                </mxCell>
                <mxCell id="24" value="Password" style="text;html=1;strokeColor=none;fillColor=none;align=center;verticalAlign=middle;whiteSpace=wrap;rounded=0;fontSize=14;movable=1;resizable=1;rotatable=1;deletable=1;editable=1;connectable=1;" parent="20" vertex="1">
                    <mxGeometry x="10" width="60" height="30" as="geometry"/>
                </mxCell>
                <mxCell id="21" value="" style="rounded=0;whiteSpace=wrap;html=1;fontSize=24;container=1;movable=1;resizable=1;rotatable=1;deletable=1;editable=1;connectable=1;" parent="14" vertex="1">
                    <mxGeometry x="40" y="400" width="90" height="30" as="geometry"/>
                </mxCell>
                <mxCell id="26" value="Login" style="text;html=1;strokeColor=none;fillColor=none;align=center;verticalAlign=middle;whiteSpace=wrap;rounded=0;fontSize=14;movable=1;resizable=1;rotatable=1;deletable=1;editable=1;connectable=1;" parent="21" vertex="1">
                    <mxGeometry width="90" height="30" as="geometry"/>
                </mxCell>
                <mxCell id="22" value="" style="rounded=0;whiteSpace=wrap;html=1;fontSize=24;container=1;movable=1;resizable=1;rotatable=1;deletable=1;editable=1;connectable=1;" parent="14" vertex="1">
                    <mxGeometry x="150" y="400" width="90" height="30" as="geometry"/>
                </mxCell>
                <mxCell id="27" value="Register" style="text;html=1;strokeColor=none;fillColor=none;align=center;verticalAlign=middle;whiteSpace=wrap;rounded=0;fontSize=14;movable=1;resizable=1;rotatable=1;deletable=1;editable=1;connectable=1;" parent="22" vertex="1">
                    <mxGeometry width="90" height="30" as="geometry"/>
                </mxCell>
                <mxCell id="51" value="Login page" style="text;html=1;strokeColor=none;fillColor=none;align=center;verticalAlign=middle;whiteSpace=wrap;rounded=0;fontSize=14;movable=1;resizable=1;rotatable=1;deletable=1;editable=1;connectable=1;" parent="14" vertex="1">
                    <mxGeometry x="80" y="20" width="120" height="30" as="geometry"/>
                </mxCell>
                <mxCell id="370" value="" style="rounded=0;whiteSpace=wrap;html=1;fontSize=14;container=1;" parent="14" vertex="1">
                    <mxGeometry x="40" y="460" width="200" height="30" as="geometry"/>
                </mxCell>
                <mxCell id="371" value="Login via Google" style="text;html=1;strokeColor=none;fillColor=none;align=center;verticalAlign=middle;whiteSpace=wrap;rounded=0;fontSize=14;" parent="370" vertex="1">
                    <mxGeometry x="10" width="180" height="30" as="geometry"/>
                </mxCell>
                <mxCell id="39" value="" style="verticalLabelPosition=bottom;verticalAlign=top;html=1;shadow=0;dashed=0;strokeWidth=1;shape=mxgraph.android.phone2;strokeColor=#c0c0c0;fontSize=14;container=1;movable=1;resizable=1;rotatable=1;deletable=1;editable=1;connectable=1;recursiveResize=0;" parent="1" vertex="1">
                    <mxGeometry x="440" width="280" height="560" as="geometry"/>
                </mxCell>
                <mxCell id="41" value="" style="rounded=0;whiteSpace=wrap;html=1;fontSize=14;container=1;movable=1;resizable=1;rotatable=1;deletable=1;editable=1;connectable=1;" parent="39" vertex="1">
                    <mxGeometry x="10" y="50" width="260" height="40" as="geometry"/>
                </mxCell>
                <mxCell id="42" value="" style="triangle;whiteSpace=wrap;html=1;fontSize=14;direction=west;movable=1;resizable=1;rotatable=1;deletable=1;editable=1;connectable=1;" parent="41" vertex="1">
                    <mxGeometry x="10" y="10" width="20" height="20" as="geometry"/>
                </mxCell>
                <mxCell id="43" value="" style="rounded=0;whiteSpace=wrap;html=1;fontSize=14;container=1;movable=1;resizable=1;rotatable=1;deletable=1;editable=1;connectable=1;" parent="39" vertex="1">
                    <mxGeometry x="40" y="120" width="200" height="30" as="geometry"/>
                </mxCell>
                <mxCell id="53" value="Username" style="text;html=1;strokeColor=none;fillColor=none;align=left;verticalAlign=middle;whiteSpace=wrap;rounded=0;fontSize=14;movable=1;resizable=1;rotatable=1;deletable=1;editable=1;connectable=1;" parent="43" vertex="1">
                    <mxGeometry x="10" width="180" height="30" as="geometry"/>
                </mxCell>
                <mxCell id="46" value="" style="rounded=0;whiteSpace=wrap;html=1;fontSize=14;container=1;movable=1;resizable=1;rotatable=1;deletable=1;editable=1;connectable=1;" parent="39" vertex="1">
                    <mxGeometry x="160" y="450" width="80" height="30" as="geometry"/>
                </mxCell>
                <mxCell id="47" value="Register" style="text;html=1;strokeColor=none;fillColor=none;align=center;verticalAlign=middle;whiteSpace=wrap;rounded=0;fontSize=14;movable=1;resizable=1;rotatable=1;deletable=1;editable=1;connectable=1;" parent="46" vertex="1">
                    <mxGeometry width="80" height="30" as="geometry"/>
                </mxCell>
                <mxCell id="52" value="Register page" style="text;html=1;strokeColor=none;fillColor=none;align=center;verticalAlign=middle;whiteSpace=wrap;rounded=0;fontSize=14;movable=1;resizable=1;rotatable=1;deletable=1;editable=1;connectable=1;" parent="39" vertex="1">
                    <mxGeometry x="80" y="20" width="120" height="30" as="geometry"/>
                </mxCell>
                <mxCell id="54" value="" style="rounded=0;whiteSpace=wrap;html=1;fontSize=14;container=1;movable=1;resizable=1;rotatable=1;deletable=1;editable=1;connectable=1;" parent="39" vertex="1">
                    <mxGeometry x="40" y="170" width="200" height="30" as="geometry"/>
                </mxCell>
                <mxCell id="55" value="Email" style="text;html=1;strokeColor=none;fillColor=none;align=left;verticalAlign=middle;whiteSpace=wrap;rounded=0;fontSize=14;movable=1;resizable=1;rotatable=1;deletable=1;editable=1;connectable=1;" parent="54" vertex="1">
                    <mxGeometry x="10" width="180" height="30" as="geometry"/>
                </mxCell>
                <mxCell id="56" value="" style="rounded=0;whiteSpace=wrap;html=1;fontSize=14;container=1;movable=1;resizable=1;rotatable=1;deletable=1;editable=1;connectable=1;" parent="39" vertex="1">
                    <mxGeometry x="40" y="310" width="200" height="30" as="geometry"/>
                </mxCell>
                <mxCell id="57" value="Password" style="text;html=1;strokeColor=none;fillColor=none;align=left;verticalAlign=middle;whiteSpace=wrap;rounded=0;fontSize=14;movable=1;resizable=1;rotatable=1;deletable=1;editable=1;connectable=1;" parent="56" vertex="1">
                    <mxGeometry x="10" width="180" height="30" as="geometry"/>
                </mxCell>
                <mxCell id="58" value="" style="rounded=0;whiteSpace=wrap;html=1;fontSize=14;container=1;movable=1;resizable=1;rotatable=1;deletable=1;editable=1;connectable=1;" parent="39" vertex="1">
                    <mxGeometry x="40" y="360" width="200" height="30" as="geometry"/>
                </mxCell>
                <mxCell id="59" value="Confirm password" style="text;html=1;strokeColor=none;fillColor=none;align=left;verticalAlign=middle;whiteSpace=wrap;rounded=0;fontSize=14;movable=1;resizable=1;rotatable=1;deletable=1;editable=1;connectable=1;" parent="58" vertex="1">
                    <mxGeometry x="10" width="180" height="30" as="geometry"/>
                </mxCell>
                <mxCell id="366" value="" style="rounded=0;whiteSpace=wrap;html=1;fontSize=14;container=1;" parent="39" vertex="1">
                    <mxGeometry x="40" y="220" width="200" height="30" as="geometry"/>
                </mxCell>
                <mxCell id="367" value="Address" style="text;html=1;strokeColor=none;fillColor=none;align=left;verticalAlign=middle;whiteSpace=wrap;rounded=0;fontSize=14;" parent="366" vertex="1">
                    <mxGeometry x="10" width="180" height="30" as="geometry"/>
                </mxCell>
                <mxCell id="368" value="" style="rounded=0;whiteSpace=wrap;html=1;fontSize=14;container=1;" parent="39" vertex="1">
                    <mxGeometry x="40" y="265" width="200" height="30" as="geometry"/>
                </mxCell>
                <mxCell id="369" value="Phone number" style="text;html=1;strokeColor=none;fillColor=none;align=left;verticalAlign=middle;whiteSpace=wrap;rounded=0;fontSize=14;" parent="368" vertex="1">
                    <mxGeometry x="10" width="180" height="30" as="geometry"/>
                </mxCell>
                <mxCell id="40" style="edgeStyle=none;html=1;exitX=1;exitY=0.5;exitDx=0;exitDy=0;entryX=-0.004;entryY=0.742;entryDx=0;entryDy=0;entryPerimeter=0;fontSize=14;movable=1;resizable=1;rotatable=1;deletable=1;editable=1;connectable=1;" parent="1" source="27" target="39" edge="1">
                    <mxGeometry relative="1" as="geometry"/>
                </mxCell>
                <mxCell id="61" style="edgeStyle=none;html=1;exitX=0.5;exitY=1;exitDx=0;exitDy=0;fontSize=14;entryX=0.299;entryY=-0.003;entryDx=0;entryDy=0;entryPerimeter=0;" parent="1" source="26" target="60" edge="1">
                    <mxGeometry relative="1" as="geometry">
                        <mxPoint x="165" y="640" as="targetPoint"/>
                        <Array as="points"/>
                    </mxGeometry>
                </mxCell>
                <mxCell id="112" value="" style="verticalLabelPosition=bottom;verticalAlign=top;html=1;shadow=0;dashed=0;strokeWidth=1;shape=mxgraph.android.phone2;strokeColor=#c0c0c0;fontSize=14;container=1;recursiveResize=0;" parent="1" vertex="1">
                    <mxGeometry x="-600" y="640" width="280" height="560" as="geometry"/>
                </mxCell>
                <mxCell id="113" value="User profile" style="text;html=1;strokeColor=none;fillColor=none;align=center;verticalAlign=middle;whiteSpace=wrap;rounded=0;fontSize=14;" parent="112" vertex="1">
                    <mxGeometry x="80" y="20" width="120" height="30" as="geometry"/>
                </mxCell>
                <mxCell id="114" value="" style="rounded=0;whiteSpace=wrap;html=1;fontSize=14;container=1;" parent="112" vertex="1">
                    <mxGeometry x="10" y="50" width="260" height="40" as="geometry"/>
                </mxCell>
                <mxCell id="115" value="" style="triangle;whiteSpace=wrap;html=1;fontSize=14;direction=west;" parent="114" vertex="1">
                    <mxGeometry x="10" y="10" width="20" height="20" as="geometry"/>
                </mxCell>
                <mxCell id="117" value="" style="rounded=0;whiteSpace=wrap;html=1;container=1;" parent="112" vertex="1">
                    <mxGeometry x="160" y="450" width="80" height="30" as="geometry"/>
                </mxCell>
                <mxCell id="118" value="Edit" style="text;html=1;strokeColor=none;fillColor=none;align=center;verticalAlign=middle;whiteSpace=wrap;rounded=0;" parent="117" vertex="1">
                    <mxGeometry x="10" width="60" height="30" as="geometry"/>
                </mxCell>
                <mxCell id="119" value="" style="ellipse;whiteSpace=wrap;html=1;aspect=fixed;container=1;" parent="112" vertex="1">
                    <mxGeometry x="100" y="120" width="80" height="80" as="geometry"/>
                </mxCell>
                <mxCell id="120" value="Avatar" style="text;html=1;strokeColor=none;fillColor=none;align=center;verticalAlign=middle;whiteSpace=wrap;rounded=0;" parent="119" vertex="1">
                    <mxGeometry x="10" y="25" width="60" height="30" as="geometry"/>
                </mxCell>
                <mxCell id="121" value="Username" style="text;html=1;strokeColor=none;fillColor=none;align=center;verticalAlign=middle;whiteSpace=wrap;rounded=0;" parent="112" vertex="1">
                    <mxGeometry x="110" y="225" width="60" height="30" as="geometry"/>
                </mxCell>
                <mxCell id="122" value="Email" style="text;html=1;strokeColor=none;fillColor=none;align=center;verticalAlign=middle;whiteSpace=wrap;rounded=0;" parent="112" vertex="1">
                    <mxGeometry x="110" y="260" width="60" height="30" as="geometry"/>
                </mxCell>
                <mxCell id="364" value="Address&lt;br&gt;" style="text;html=1;strokeColor=none;fillColor=none;align=center;verticalAlign=middle;whiteSpace=wrap;rounded=0;" parent="112" vertex="1">
                    <mxGeometry x="110" y="300" width="60" height="30" as="geometry"/>
                </mxCell>
                <mxCell id="365" value="Phone number" style="text;html=1;strokeColor=none;fillColor=none;align=center;verticalAlign=middle;whiteSpace=wrap;rounded=0;" parent="112" vertex="1">
                    <mxGeometry x="80" y="340" width="120" height="30" as="geometry"/>
                </mxCell>
                <mxCell id="116" style="edgeStyle=none;html=1;exitX=0;exitY=0.5;exitDx=0;exitDy=0;entryX=1.005;entryY=0.215;entryDx=0;entryDy=0;entryPerimeter=0;" parent="1" source="100" target="112" edge="1">
                    <mxGeometry relative="1" as="geometry"/>
                </mxCell>
                <mxCell id="123" value="" style="verticalLabelPosition=bottom;verticalAlign=top;html=1;shadow=0;dashed=0;strokeWidth=1;shape=mxgraph.android.phone2;strokeColor=#c0c0c0;fontSize=14;container=1;recursiveResize=0;" parent="1" vertex="1">
                    <mxGeometry x="120" y="1280" width="280" height="560" as="geometry"/>
                </mxCell>
                <mxCell id="124" value="Item info page" style="text;html=1;strokeColor=none;fillColor=none;align=center;verticalAlign=middle;whiteSpace=wrap;rounded=0;fontSize=14;" parent="123" vertex="1">
                    <mxGeometry x="80" y="20" width="120" height="30" as="geometry"/>
                </mxCell>
                <mxCell id="126" value="" style="rounded=0;whiteSpace=wrap;html=1;fontSize=14;container=1;" parent="123" vertex="1">
                    <mxGeometry x="10" y="50" width="260" height="40" as="geometry"/>
                </mxCell>
                <mxCell id="332" style="edgeStyle=none;html=1;exitX=0.5;exitY=1;exitDx=0;exitDy=0;" parent="126" source="331" target="126" edge="1">
                    <mxGeometry relative="1" as="geometry"/>
                </mxCell>
                <mxCell id="331" value="" style="triangle;whiteSpace=wrap;html=1;fontSize=14;direction=west;" parent="126" vertex="1">
                    <mxGeometry x="20" y="20" width="20" height="20" as="geometry"/>
                </mxCell>
                <mxCell id="129" value="" style="rounded=0;whiteSpace=wrap;html=1;" parent="123" vertex="1">
                    <mxGeometry x="30" y="120" width="220" height="120" as="geometry"/>
                </mxCell>
                <mxCell id="130" value="&lt;font style=&quot;font-size: 24px;&quot;&gt;Images&lt;/font&gt;" style="text;html=1;strokeColor=none;fillColor=none;align=center;verticalAlign=middle;whiteSpace=wrap;rounded=0;" parent="123" vertex="1">
                    <mxGeometry x="50" y="140" width="180" height="80" as="geometry"/>
                </mxCell>
                <mxCell id="131" value="&lt;font style=&quot;font-size: 18px;&quot;&gt;Name&lt;/font&gt;" style="text;html=1;strokeColor=none;fillColor=none;align=left;verticalAlign=middle;whiteSpace=wrap;rounded=0;fontSize=24;" parent="123" vertex="1">
                    <mxGeometry x="30" y="250" width="220" height="30" as="geometry"/>
                </mxCell>
                <mxCell id="132" value="&lt;div style=&quot;&quot;&gt;&lt;span style=&quot;font-size: 14px; background-color: initial;&quot;&gt;Description&lt;/span&gt;&lt;/div&gt;" style="text;html=1;strokeColor=none;fillColor=none;align=left;verticalAlign=middle;whiteSpace=wrap;rounded=0;fontSize=18;" parent="123" vertex="1">
                    <mxGeometry x="29" y="290" width="221" height="20" as="geometry"/>
                </mxCell>
                <mxCell id="134" value="" style="rounded=0;whiteSpace=wrap;html=1;fontSize=14;container=1;" parent="123" vertex="1">
                    <mxGeometry x="29" y="360" width="41" height="40" as="geometry"/>
                </mxCell>
                <mxCell id="137" value="" style="dashed=0;aspect=fixed;verticalLabelPosition=bottom;verticalAlign=top;align=center;shape=mxgraph.gmdl.heart;strokeColor=none;fillColor=#737373;shadow=0;sketch=0;fontSize=14;" parent="134" vertex="1">
                    <mxGeometry x="11" y="12" width="20" height="18" as="geometry"/>
                </mxCell>
                <mxCell id="135" value="" style="rounded=0;whiteSpace=wrap;html=1;fontSize=14;container=1;" parent="123" vertex="1">
                    <mxGeometry x="89" y="360" width="161" height="40" as="geometry"/>
                </mxCell>
                <mxCell id="136" value="Add to cart" style="text;html=1;strokeColor=none;fillColor=none;align=center;verticalAlign=middle;whiteSpace=wrap;rounded=0;fontSize=14;" parent="135" vertex="1">
                    <mxGeometry x="10" y="5" width="140" height="30" as="geometry"/>
                </mxCell>
                <mxCell id="193" value="" style="swimlane;startSize=0;fontSize=14;dashed=1;strokeColor=default;strokeWidth=2;perimeterSpacing=0;movableLabel=0;container=0;movable=1;resizable=1;rotatable=1;deletable=1;editable=1;connectable=1;" parent="1" vertex="1">
                    <mxGeometry x="-240" y="600" width="1320" height="640" as="geometry">
                        <mxRectangle x="40" y="600" width="50" height="40" as="alternateBounds"/>
                    </mxGeometry>
                </mxCell>
                <mxCell id="194" value="&lt;b&gt;&lt;font style=&quot;font-size: 16px;&quot;&gt;Home Activity&lt;/font&gt;&lt;/b&gt;" style="text;html=1;strokeColor=none;fillColor=none;align=center;verticalAlign=middle;whiteSpace=wrap;rounded=0;dashed=1;strokeWidth=2;fontSize=14;" parent="193" vertex="1">
                    <mxGeometry width="120" height="30" as="geometry"/>
                </mxCell>
                <mxCell id="92" value="" style="verticalLabelPosition=bottom;verticalAlign=top;html=1;shadow=0;dashed=0;strokeWidth=1;shape=mxgraph.android.phone2;strokeColor=#c0c0c0;fontSize=14;container=1;recursiveResize=0;" parent="193" vertex="1">
                    <mxGeometry x="40" y="40" width="280" height="560" as="geometry"/>
                </mxCell>
                <mxCell id="93" value="Sidebar" style="text;html=1;strokeColor=none;fillColor=none;align=center;verticalAlign=middle;whiteSpace=wrap;rounded=0;fontSize=14;" parent="92" vertex="1">
                    <mxGeometry x="80" y="20" width="120" height="30" as="geometry"/>
                </mxCell>
                <mxCell id="94" value="" style="rounded=0;whiteSpace=wrap;html=1;fontSize=14;container=1;" parent="92" vertex="1">
                    <mxGeometry x="10" y="50" width="260" height="40" as="geometry"/>
                </mxCell>
                <mxCell id="95" value="" style="whiteSpace=wrap;html=1;aspect=fixed;fontSize=14;" parent="94" vertex="1">
                    <mxGeometry x="5" y="5" width="30" height="30" as="geometry"/>
                </mxCell>
                <mxCell id="97" value="" style="rounded=0;whiteSpace=wrap;html=1;fontSize=14;container=1;" parent="92" vertex="1">
                    <mxGeometry x="10" y="90" width="190" height="420" as="geometry"/>
                </mxCell>
                <mxCell id="98" value="" style="rounded=0;whiteSpace=wrap;html=1;fontSize=14;container=1;" parent="97" vertex="1">
                    <mxGeometry width="190" height="60" as="geometry"/>
                </mxCell>
                <mxCell id="99" value="" style="ellipse;whiteSpace=wrap;html=1;aspect=fixed;fontSize=14;container=1;" parent="98" vertex="1">
                    <mxGeometry x="7.5" y="7.5" width="45" height="45" as="geometry"/>
                </mxCell>
                <mxCell id="100" value="&lt;font style=&quot;font-size: 10px;&quot;&gt;Avatar&lt;/font&gt;" style="text;html=1;strokeColor=none;fillColor=none;align=center;verticalAlign=middle;whiteSpace=wrap;rounded=0;fontSize=14;" parent="98" vertex="1">
                    <mxGeometry y="15" width="60" height="30" as="geometry"/>
                </mxCell>
                <mxCell id="101" value="&lt;span style=&quot;font-size: 12px;&quot;&gt;Username&lt;/span&gt;" style="text;html=1;strokeColor=none;fillColor=none;align=left;verticalAlign=middle;whiteSpace=wrap;rounded=0;fontSize=10;" parent="98" vertex="1">
                    <mxGeometry x="70" y="5" width="60" height="30" as="geometry"/>
                </mxCell>
                <mxCell id="102" value="Email" style="text;html=1;strokeColor=none;fillColor=none;align=left;verticalAlign=middle;whiteSpace=wrap;rounded=0;fontSize=12;" parent="98" vertex="1">
                    <mxGeometry x="70" y="30" width="60" height="30" as="geometry"/>
                </mxCell>
                <mxCell id="103" value="" style="rounded=0;whiteSpace=wrap;html=1;fontSize=12;container=1;" parent="97" vertex="1">
                    <mxGeometry y="60" width="190" height="40" as="geometry"/>
                </mxCell>
                <mxCell id="105" value="&lt;font style=&quot;font-size: 14px;&quot;&gt;Settings&lt;/font&gt;" style="text;html=1;strokeColor=none;fillColor=none;align=left;verticalAlign=middle;whiteSpace=wrap;rounded=0;fontSize=12;" parent="103" vertex="1">
                    <mxGeometry x="10" y="5" width="60" height="30" as="geometry"/>
                </mxCell>
                <mxCell id="106" value="" style="rounded=0;whiteSpace=wrap;html=1;fontSize=12;container=1;" parent="97" vertex="1">
                    <mxGeometry y="100" width="190" height="40" as="geometry"/>
                </mxCell>
                <mxCell id="107" value="&lt;font style=&quot;font-size: 14px;&quot;&gt;About&lt;/font&gt;" style="text;html=1;strokeColor=none;fillColor=none;align=left;verticalAlign=middle;whiteSpace=wrap;rounded=0;fontSize=12;" parent="106" vertex="1">
                    <mxGeometry x="10" y="5" width="60" height="30" as="geometry"/>
                </mxCell>
                <mxCell id="108" value="" style="rounded=0;whiteSpace=wrap;html=1;fontSize=12;container=1;" parent="97" vertex="1">
                    <mxGeometry y="140" width="190" height="40" as="geometry"/>
                </mxCell>
                <mxCell id="109" value="&lt;font style=&quot;font-size: 14px;&quot;&gt;Logout&lt;/font&gt;" style="text;html=1;strokeColor=none;fillColor=none;align=left;verticalAlign=middle;whiteSpace=wrap;rounded=0;fontSize=12;" parent="108" vertex="1">
                    <mxGeometry x="10" y="5" width="60" height="30" as="geometry"/>
                </mxCell>
                <mxCell id="60" value="" style="verticalLabelPosition=bottom;verticalAlign=top;html=1;shadow=0;dashed=0;strokeWidth=1;shape=mxgraph.android.phone2;strokeColor=#c0c0c0;fontSize=14;container=1;recursiveResize=0;" parent="193" vertex="1">
                    <mxGeometry x="360" y="40" width="280" height="560" as="geometry"/>
                </mxCell>
                <mxCell id="62" value="Home page" style="text;html=1;strokeColor=none;fillColor=none;align=center;verticalAlign=middle;whiteSpace=wrap;rounded=0;fontSize=14;" parent="60" vertex="1">
                    <mxGeometry x="80" y="20" width="120" height="30" as="geometry"/>
                </mxCell>
                <mxCell id="63" value="" style="rounded=0;whiteSpace=wrap;html=1;fontSize=14;container=1;" parent="60" vertex="1">
                    <mxGeometry x="10" y="50" width="260" height="40" as="geometry"/>
                </mxCell>
                <mxCell id="69" value="" style="whiteSpace=wrap;html=1;aspect=fixed;fontSize=14;" parent="63" vertex="1">
                    <mxGeometry x="5" y="5" width="30" height="30" as="geometry"/>
                </mxCell>
                <mxCell id="71" value="" style="rounded=1;whiteSpace=wrap;html=1;fontSize=14;container=1;" parent="60" vertex="1">
                    <mxGeometry x="30" y="110" width="220" height="30" as="geometry"/>
                </mxCell>
                <mxCell id="72" value="Search bar" style="text;html=1;strokeColor=none;fillColor=none;align=center;verticalAlign=middle;whiteSpace=wrap;rounded=0;fontSize=14;" parent="71" vertex="1">
                    <mxGeometry x="50" width="120" height="30" as="geometry"/>
                </mxCell>
                <mxCell id="74" value="" style="rounded=0;whiteSpace=wrap;html=1;fontSize=14;container=1;" parent="60" vertex="1">
                    <mxGeometry x="10" y="470" width="60" height="40" as="geometry"/>
                </mxCell>
                <mxCell id="76" value="&lt;b&gt;&lt;u&gt;Home&lt;/u&gt;&lt;/b&gt;" style="text;html=1;strokeColor=none;fillColor=none;align=center;verticalAlign=middle;whiteSpace=wrap;rounded=0;fontSize=14;" parent="74" vertex="1">
                    <mxGeometry x="18.461538461538463" y="5" width="27.692307692307686" height="30" as="geometry"/>
                </mxCell>
                <mxCell id="75" value="" style="rounded=0;whiteSpace=wrap;html=1;fontSize=14;container=1;" parent="60" vertex="1">
                    <mxGeometry x="210" y="470" width="60" height="40" as="geometry"/>
                </mxCell>
                <mxCell id="77" value="Cart" style="text;html=1;strokeColor=none;fillColor=none;align=center;verticalAlign=middle;whiteSpace=wrap;rounded=0;fontSize=14;movable=1;resizable=1;rotatable=1;deletable=1;editable=1;connectable=1;" parent="75" vertex="1">
                    <mxGeometry x="19.999999999999996" y="5" width="23.846666666666668" height="30" as="geometry"/>
                </mxCell>
                <mxCell id="79" value="" style="rounded=0;whiteSpace=wrap;html=1;fontSize=14;container=1;" parent="60" vertex="1">
                    <mxGeometry x="30" y="170" width="100" height="120" as="geometry"/>
                </mxCell>
                <mxCell id="80" value="Item" style="text;html=1;strokeColor=none;fillColor=none;align=center;verticalAlign=middle;whiteSpace=wrap;rounded=0;fontSize=14;" parent="79" vertex="1">
                    <mxGeometry x="20" y="45" width="60" height="30" as="geometry"/>
                </mxCell>
                <mxCell id="81" value="" style="rounded=0;whiteSpace=wrap;html=1;fontSize=14;container=1;" parent="60" vertex="1">
                    <mxGeometry x="150" y="170" width="100" height="120" as="geometry"/>
                </mxCell>
                <mxCell id="82" value="Item" style="text;html=1;strokeColor=none;fillColor=none;align=center;verticalAlign=middle;whiteSpace=wrap;rounded=0;fontSize=14;" parent="81" vertex="1">
                    <mxGeometry x="20" y="45" width="60" height="30" as="geometry"/>
                </mxCell>
                <mxCell id="88" value="" style="rounded=0;whiteSpace=wrap;html=1;fontSize=14;container=1;" parent="60" vertex="1">
                    <mxGeometry x="30" y="310" width="100" height="120" as="geometry"/>
                </mxCell>
                <mxCell id="89" value="Item" style="text;html=1;strokeColor=none;fillColor=none;align=center;verticalAlign=middle;whiteSpace=wrap;rounded=0;fontSize=14;" parent="88" vertex="1">
                    <mxGeometry x="20" y="45" width="60" height="30" as="geometry"/>
                </mxCell>
                <mxCell id="90" value="" style="rounded=0;whiteSpace=wrap;html=1;fontSize=14;container=1;" parent="60" vertex="1">
                    <mxGeometry x="150" y="310" width="100" height="120" as="geometry"/>
                </mxCell>
                <mxCell id="91" value="Item" style="text;html=1;strokeColor=none;fillColor=none;align=center;verticalAlign=middle;whiteSpace=wrap;rounded=0;fontSize=14;" parent="90" vertex="1">
                    <mxGeometry x="20" y="45" width="60" height="30" as="geometry"/>
                </mxCell>
                <mxCell id="165" value="" style="rounded=0;whiteSpace=wrap;html=1;fontSize=14;container=1;" parent="60" vertex="1">
                    <mxGeometry x="140" y="470" width="70" height="40" as="geometry"/>
                </mxCell>
                <mxCell id="166" value="Favorites" style="text;html=1;strokeColor=none;fillColor=none;align=center;verticalAlign=middle;whiteSpace=wrap;rounded=0;fontSize=14;movable=0;resizable=0;rotatable=0;deletable=0;editable=0;connectable=0;" parent="165" vertex="1">
                    <mxGeometry x="10" y="5" width="60" height="30" as="geometry"/>
                </mxCell>
                <mxCell id="215" value="Lucky wheel" style="rounded=0;whiteSpace=wrap;html=1;container=1;" parent="60" vertex="1">
                    <mxGeometry x="70" y="470" width="70" height="40" as="geometry"/>
                </mxCell>
                <mxCell id="110" style="edgeStyle=none;html=1;exitX=0;exitY=0.5;exitDx=0;exitDy=0;entryX=1.003;entryY=0.126;entryDx=0;entryDy=0;entryPerimeter=0;fontSize=14;" parent="193" source="69" target="92" edge="1">
                    <mxGeometry relative="1" as="geometry"/>
                </mxCell>
                <mxCell id="167" value="" style="verticalLabelPosition=bottom;verticalAlign=top;html=1;shadow=0;dashed=0;strokeWidth=1;shape=mxgraph.android.phone2;strokeColor=#c0c0c0;fontSize=14;container=1;recursiveResize=0;" parent="193" vertex="1">
                    <mxGeometry x="680" y="40" width="280" height="560" as="geometry"/>
                </mxCell>
                <mxCell id="168" value="Favorites page" style="text;html=1;strokeColor=none;fillColor=none;align=center;verticalAlign=middle;whiteSpace=wrap;rounded=0;fontSize=14;" parent="167" vertex="1">
                    <mxGeometry x="80" y="20" width="120" height="30" as="geometry"/>
                </mxCell>
                <mxCell id="169" value="" style="rounded=0;whiteSpace=wrap;html=1;fontSize=14;container=1;" parent="167" vertex="1">
                    <mxGeometry x="10" y="50" width="260" height="40" as="geometry"/>
                </mxCell>
                <mxCell id="170" value="" style="whiteSpace=wrap;html=1;aspect=fixed;fontSize=14;" parent="169" vertex="1">
                    <mxGeometry x="5" y="5" width="30" height="30" as="geometry"/>
                </mxCell>
                <mxCell id="179" value="" style="rounded=0;whiteSpace=wrap;html=1;fontSize=14;container=1;" parent="167" vertex="1">
                    <mxGeometry x="10" y="470" width="60" height="40" as="geometry"/>
                </mxCell>
                <mxCell id="180" value="Home" style="text;html=1;strokeColor=none;fillColor=none;align=center;verticalAlign=middle;whiteSpace=wrap;rounded=0;fontSize=14;" parent="179" vertex="1">
                    <mxGeometry x="18.461538461538463" y="5" width="27.69230769230769" height="30" as="geometry"/>
                </mxCell>
                <mxCell id="181" value="" style="rounded=0;whiteSpace=wrap;html=1;fontSize=14;container=1;" parent="167" vertex="1">
                    <mxGeometry x="220" y="470" width="50" height="40" as="geometry"/>
                </mxCell>
                <mxCell id="182" value="Cart" style="text;html=1;strokeColor=none;fillColor=none;align=center;verticalAlign=middle;whiteSpace=wrap;rounded=0;fontSize=14;movable=1;resizable=1;rotatable=1;deletable=1;editable=1;connectable=1;" parent="181" vertex="1">
                    <mxGeometry x="13.461538461538462" y="5" width="23.076923076923077" height="30" as="geometry"/>
                </mxCell>
                <mxCell id="183" value="" style="rounded=0;whiteSpace=wrap;html=1;fontSize=14;container=1;" parent="167" vertex="1">
                    <mxGeometry x="140" y="470" width="80" height="40" as="geometry"/>
                </mxCell>
                <mxCell id="195" value="" style="rounded=0;whiteSpace=wrap;html=1;fontSize=14;container=1;" parent="167" vertex="1">
                    <mxGeometry x="22.5" y="110" width="235" height="90" as="geometry"/>
                </mxCell>
                <mxCell id="196" value="" style="rounded=0;whiteSpace=wrap;html=1;fontSize=14;container=1;" parent="195" vertex="1">
                    <mxGeometry x="15" y="15" width="65" height="60" as="geometry"/>
                </mxCell>
                <mxCell id="197" value="Image" style="text;html=1;strokeColor=none;fillColor=none;align=center;verticalAlign=middle;whiteSpace=wrap;rounded=0;fontSize=14;" parent="196" vertex="1">
                    <mxGeometry x="5" y="15" width="60" height="30" as="geometry"/>
                </mxCell>
                <mxCell id="198" value="Name" style="text;html=1;strokeColor=none;fillColor=none;align=center;verticalAlign=middle;whiteSpace=wrap;rounded=0;fontSize=14;" parent="195" vertex="1">
                    <mxGeometry x="87.5" y="15" width="60" height="30" as="geometry"/>
                </mxCell>
                <mxCell id="199" value="Price" style="text;html=1;strokeColor=none;fillColor=none;align=center;verticalAlign=middle;whiteSpace=wrap;rounded=0;fontSize=14;" parent="195" vertex="1">
                    <mxGeometry x="90" y="50" width="60" height="30" as="geometry"/>
                </mxCell>
                <mxCell id="200" value="" style="rounded=0;whiteSpace=wrap;html=1;fontSize=14;container=1;" parent="167" vertex="1">
                    <mxGeometry x="22.5" y="220" width="235" height="90" as="geometry"/>
                </mxCell>
                <mxCell id="201" value="" style="rounded=0;whiteSpace=wrap;html=1;fontSize=14;container=1;" parent="200" vertex="1">
                    <mxGeometry x="15" y="15" width="65" height="60" as="geometry"/>
                </mxCell>
                <mxCell id="202" value="Image" style="text;html=1;strokeColor=none;fillColor=none;align=center;verticalAlign=middle;whiteSpace=wrap;rounded=0;fontSize=14;" parent="201" vertex="1">
                    <mxGeometry x="5" y="15" width="60" height="30" as="geometry"/>
                </mxCell>
                <mxCell id="203" value="Name" style="text;html=1;strokeColor=none;fillColor=none;align=center;verticalAlign=middle;whiteSpace=wrap;rounded=0;fontSize=14;" parent="200" vertex="1">
                    <mxGeometry x="87.5" y="15" width="60" height="30" as="geometry"/>
                </mxCell>
                <mxCell id="204" value="Price" style="text;html=1;strokeColor=none;fillColor=none;align=center;verticalAlign=middle;whiteSpace=wrap;rounded=0;fontSize=14;" parent="200" vertex="1">
                    <mxGeometry x="90" y="50" width="60" height="30" as="geometry"/>
                </mxCell>
                <mxCell id="205" value="" style="rounded=0;whiteSpace=wrap;html=1;fontSize=14;container=1;" parent="167" vertex="1">
                    <mxGeometry x="22.5" y="330" width="235" height="90" as="geometry"/>
                </mxCell>
                <mxCell id="206" value="" style="rounded=0;whiteSpace=wrap;html=1;fontSize=14;container=1;" parent="205" vertex="1">
                    <mxGeometry x="15" y="15" width="65" height="60" as="geometry"/>
                </mxCell>
                <mxCell id="207" value="Image" style="text;html=1;strokeColor=none;fillColor=none;align=center;verticalAlign=middle;whiteSpace=wrap;rounded=0;fontSize=14;" parent="206" vertex="1">
                    <mxGeometry x="5" y="15" width="60" height="30" as="geometry"/>
                </mxCell>
                <mxCell id="208" value="Name" style="text;html=1;strokeColor=none;fillColor=none;align=center;verticalAlign=middle;whiteSpace=wrap;rounded=0;fontSize=14;" parent="205" vertex="1">
                    <mxGeometry x="87.5" y="15" width="60" height="30" as="geometry"/>
                </mxCell>
                <mxCell id="209" value="Price" style="text;html=1;strokeColor=none;fillColor=none;align=center;verticalAlign=middle;whiteSpace=wrap;rounded=0;fontSize=14;" parent="205" vertex="1">
                    <mxGeometry x="90" y="50" width="60" height="30" as="geometry"/>
                </mxCell>
                <mxCell id="184" value="&lt;u&gt;&lt;b&gt;Favorites&lt;/b&gt;&lt;/u&gt;" style="text;html=1;strokeColor=none;fillColor=none;align=center;verticalAlign=middle;whiteSpace=wrap;rounded=0;fontSize=14;" parent="167" vertex="1">
                    <mxGeometry x="150" y="470" width="70" height="35" as="geometry"/>
                </mxCell>
                <mxCell id="216" value="Lucky wheel" style="rounded=0;whiteSpace=wrap;html=1;" parent="167" vertex="1">
                    <mxGeometry x="70" y="470" width="80" height="40" as="geometry"/>
                </mxCell>
                <mxCell id="191" style="edgeStyle=none;html=1;exitX=0.5;exitY=1;exitDx=0;exitDy=0;entryX=0.359;entryY=1;entryDx=0;entryDy=0;entryPerimeter=0;fontSize=14;" parent="193" source="165" target="167" edge="1">
                    <mxGeometry relative="1" as="geometry">
                        <Array as="points">
                            <mxPoint x="535" y="630"/>
                            <mxPoint x="781" y="630"/>
                        </Array>
                    </mxGeometry>
                </mxCell>
                <mxCell id="138" value="" style="verticalLabelPosition=bottom;verticalAlign=top;html=1;shadow=0;dashed=0;strokeWidth=1;shape=mxgraph.android.phone2;strokeColor=#c0c0c0;fontSize=14;container=1;recursiveResize=0;" parent="193" vertex="1">
                    <mxGeometry x="1000" y="40" width="280" height="560" as="geometry"/>
                </mxCell>
                <mxCell id="139" value="Cart page" style="text;html=1;strokeColor=none;fillColor=none;align=center;verticalAlign=middle;whiteSpace=wrap;rounded=0;fontSize=14;" parent="138" vertex="1">
                    <mxGeometry x="80" y="20" width="120" height="30" as="geometry"/>
                </mxCell>
                <mxCell id="142" value="" style="rounded=0;whiteSpace=wrap;html=1;fontSize=14;container=1;" parent="138" vertex="1">
                    <mxGeometry x="10" y="50" width="260" height="40" as="geometry"/>
                </mxCell>
                <mxCell id="143" value="" style="whiteSpace=wrap;html=1;aspect=fixed;fontSize=14;" parent="142" vertex="1">
                    <mxGeometry x="5" y="5" width="30" height="30" as="geometry"/>
                </mxCell>
                <mxCell id="149" value="x items" style="text;html=1;strokeColor=none;fillColor=none;align=center;verticalAlign=middle;whiteSpace=wrap;rounded=0;fontSize=14;" parent="138" vertex="1">
                    <mxGeometry x="20" y="110" width="60" height="30" as="geometry"/>
                </mxCell>
                <mxCell id="150" value="" style="rounded=0;whiteSpace=wrap;html=1;fontSize=14;container=1;" parent="138" vertex="1">
                    <mxGeometry x="25" y="150" width="235" height="90" as="geometry"/>
                </mxCell>
                <mxCell id="151" value="" style="rounded=0;whiteSpace=wrap;html=1;fontSize=14;container=1;" parent="150" vertex="1">
                    <mxGeometry x="15" y="15" width="65" height="60" as="geometry"/>
                </mxCell>
                <mxCell id="152" value="Image" style="text;html=1;strokeColor=none;fillColor=none;align=center;verticalAlign=middle;whiteSpace=wrap;rounded=0;fontSize=14;" parent="151" vertex="1">
                    <mxGeometry x="5" y="15" width="60" height="30" as="geometry"/>
                </mxCell>
                <mxCell id="153" value="Name" style="text;html=1;strokeColor=none;fillColor=none;align=center;verticalAlign=middle;whiteSpace=wrap;rounded=0;fontSize=14;" parent="150" vertex="1">
                    <mxGeometry x="87.5" y="15" width="60" height="30" as="geometry"/>
                </mxCell>
                <mxCell id="154" value="Price" style="text;html=1;strokeColor=none;fillColor=none;align=center;verticalAlign=middle;whiteSpace=wrap;rounded=0;fontSize=14;" parent="150" vertex="1">
                    <mxGeometry x="90" y="50" width="60" height="30" as="geometry"/>
                </mxCell>
                <mxCell id="155" value="" style="rounded=0;whiteSpace=wrap;html=1;fontSize=14;container=1;" parent="138" vertex="1">
                    <mxGeometry x="25" y="260" width="235" height="90" as="geometry"/>
                </mxCell>
                <mxCell id="156" value="" style="rounded=0;whiteSpace=wrap;html=1;fontSize=14;container=1;" parent="155" vertex="1">
                    <mxGeometry x="15" y="15" width="65" height="60" as="geometry"/>
                </mxCell>
                <mxCell id="157" value="Image" style="text;html=1;strokeColor=none;fillColor=none;align=center;verticalAlign=middle;whiteSpace=wrap;rounded=0;fontSize=14;" parent="156" vertex="1">
                    <mxGeometry x="5" y="15" width="60" height="30" as="geometry"/>
                </mxCell>
                <mxCell id="158" value="Name" style="text;html=1;strokeColor=none;fillColor=none;align=center;verticalAlign=middle;whiteSpace=wrap;rounded=0;fontSize=14;" parent="155" vertex="1">
                    <mxGeometry x="87.5" y="15" width="60" height="30" as="geometry"/>
                </mxCell>
                <mxCell id="159" value="Price" style="text;html=1;strokeColor=none;fillColor=none;align=center;verticalAlign=middle;whiteSpace=wrap;rounded=0;fontSize=14;" parent="155" vertex="1">
                    <mxGeometry x="90" y="50" width="60" height="30" as="geometry"/>
                </mxCell>
                <mxCell id="160" value="" style="rounded=0;whiteSpace=wrap;html=1;fontSize=14;container=1;" parent="138" vertex="1">
                    <mxGeometry x="25" y="370" width="235" height="90" as="geometry"/>
                </mxCell>
                <mxCell id="161" value="" style="rounded=0;whiteSpace=wrap;html=1;fontSize=14;container=1;" parent="160" vertex="1">
                    <mxGeometry x="15" y="15" width="65" height="60" as="geometry"/>
                </mxCell>
                <mxCell id="162" value="Image" style="text;html=1;strokeColor=none;fillColor=none;align=center;verticalAlign=middle;whiteSpace=wrap;rounded=0;fontSize=14;" parent="161" vertex="1">
                    <mxGeometry x="5" y="15" width="60" height="30" as="geometry"/>
                </mxCell>
                <mxCell id="163" value="Name" style="text;html=1;strokeColor=none;fillColor=none;align=center;verticalAlign=middle;whiteSpace=wrap;rounded=0;fontSize=14;" parent="160" vertex="1">
                    <mxGeometry x="87.5" y="15" width="60" height="30" as="geometry"/>
                </mxCell>
                <mxCell id="164" value="Price" style="text;html=1;strokeColor=none;fillColor=none;align=center;verticalAlign=middle;whiteSpace=wrap;rounded=0;fontSize=14;" parent="160" vertex="1">
                    <mxGeometry x="90" y="50" width="60" height="30" as="geometry"/>
                </mxCell>
                <mxCell id="312" value="" style="rounded=0;whiteSpace=wrap;html=1;fontSize=14;container=1;" parent="138" vertex="1">
                    <mxGeometry x="12.5" y="470" width="60" height="40" as="geometry"/>
                </mxCell>
                <mxCell id="313" value="Home" style="text;html=1;strokeColor=none;fillColor=none;align=center;verticalAlign=middle;whiteSpace=wrap;rounded=0;fontSize=14;" parent="312" vertex="1">
                    <mxGeometry x="18.461538461538463" y="5" width="27.692307692307686" height="30" as="geometry"/>
                </mxCell>
                <mxCell id="314" value="" style="rounded=0;whiteSpace=wrap;html=1;fontSize=14;container=1;" parent="138" vertex="1">
                    <mxGeometry x="212.5" y="470" width="60" height="40" as="geometry"/>
                </mxCell>
                <mxCell id="315" value="&lt;b&gt;&lt;u&gt;Cart&lt;/u&gt;&lt;/b&gt;" style="text;html=1;strokeColor=none;fillColor=none;align=center;verticalAlign=middle;whiteSpace=wrap;rounded=0;fontSize=14;movable=1;resizable=1;rotatable=1;deletable=1;editable=1;connectable=1;" parent="314" vertex="1">
                    <mxGeometry x="19.999999999999996" y="5" width="23.846666666666668" height="30" as="geometry"/>
                </mxCell>
                <mxCell id="316" value="" style="rounded=0;whiteSpace=wrap;html=1;fontSize=14;container=1;" parent="138" vertex="1">
                    <mxGeometry x="142.5" y="470" width="70" height="40" as="geometry"/>
                </mxCell>
                <mxCell id="317" value="Favorites" style="text;html=1;strokeColor=none;fillColor=none;align=center;verticalAlign=middle;whiteSpace=wrap;rounded=0;fontSize=14;movable=0;resizable=0;rotatable=0;deletable=0;editable=0;connectable=0;" parent="316" vertex="1">
                    <mxGeometry x="10" y="5" width="60" height="30" as="geometry"/>
                </mxCell>
                <mxCell id="318" value="Lucky wheel" style="rounded=0;whiteSpace=wrap;html=1;container=1;" parent="138" vertex="1">
                    <mxGeometry x="72.5" y="470" width="70" height="40" as="geometry"/>
                </mxCell>
                <mxCell id="372" value="" style="rounded=0;whiteSpace=wrap;html=1;fontSize=14;container=1;" parent="138" vertex="1">
                    <mxGeometry x="160" y="105" width="100" height="30" as="geometry"/>
                </mxCell>
                <mxCell id="373" value="Purchase" style="text;html=1;strokeColor=none;fillColor=none;align=center;verticalAlign=middle;whiteSpace=wrap;rounded=0;fontSize=14;" parent="372" vertex="1">
                    <mxGeometry x="5" width="90" height="30" as="geometry"/>
                </mxCell>
                <mxCell id="141" style="edgeStyle=none;html=1;entryX=0.222;entryY=1.002;entryDx=0;entryDy=0;entryPerimeter=0;fontSize=14;exitX=0.5;exitY=1;exitDx=0;exitDy=0;" parent="193" source="181" target="138" edge="1">
                    <mxGeometry relative="1" as="geometry">
                        <Array as="points">
                            <mxPoint x="925" y="630"/>
                            <mxPoint x="1062" y="630"/>
                        </Array>
                    </mxGeometry>
                </mxCell>
                <mxCell id="125" style="edgeStyle=none;html=1;exitX=0;exitY=0.5;exitDx=0;exitDy=0;entryX=-0.013;entryY=0.22;entryDx=0;entryDy=0;entryPerimeter=0;" parent="1" source="88" target="123" edge="1">
                    <mxGeometry relative="1" as="geometry">
                        <Array as="points">
                            <mxPoint x="100" y="1010"/>
                            <mxPoint x="100" y="1403"/>
                        </Array>
                    </mxGeometry>
                </mxCell>
                <mxCell id="192" style="edgeStyle=none;html=1;exitX=1;exitY=0.5;exitDx=0;exitDy=0;entryX=-0.01;entryY=0.855;entryDx=0;entryDy=0;entryPerimeter=0;fontSize=14;" parent="1" source="108" target="14" edge="1">
                    <mxGeometry relative="1" as="geometry">
                        <Array as="points">
                            <mxPoint x="100" y="890"/>
                            <mxPoint x="100" y="479"/>
                        </Array>
                    </mxGeometry>
                </mxCell>
                <mxCell id="211" style="edgeStyle=none;html=1;exitX=0;exitY=0.5;exitDx=0;exitDy=0;entryX=1.003;entryY=0.22;entryDx=0;entryDy=0;entryPerimeter=0;" parent="1" source="195" target="123" edge="1">
                    <mxGeometry relative="1" as="geometry">
                        <Array as="points">
                            <mxPoint x="420" y="795"/>
                            <mxPoint x="420" y="1403"/>
                        </Array>
                    </mxGeometry>
                </mxCell>
                <mxCell id="212" style="edgeStyle=none;html=1;exitX=0;exitY=0.5;exitDx=0;exitDy=0;entryX=1.005;entryY=0.221;entryDx=0;entryDy=0;entryPerimeter=0;" parent="1" source="150" target="123" edge="1">
                    <mxGeometry relative="1" as="geometry">
                        <Array as="points">
                            <mxPoint x="740" y="835"/>
                            <mxPoint x="740" y="1404"/>
                        </Array>
                    </mxGeometry>
                </mxCell>
                <mxCell id="374" value="" style="verticalLabelPosition=bottom;verticalAlign=top;html=1;shadow=0;dashed=0;strokeWidth=1;shape=mxgraph.android.phone2;strokeColor=#c0c0c0;fontSize=14;container=1;recursiveResize=0;" parent="1" vertex="1">
                    <mxGeometry x="1120" y="640" width="280" height="560" as="geometry"/>
                </mxCell>
                <mxCell id="375" value="Order confirm page" style="text;html=1;strokeColor=none;fillColor=none;align=center;verticalAlign=middle;whiteSpace=wrap;rounded=0;fontSize=14;" parent="374" vertex="1">
                    <mxGeometry x="60" y="20" width="160" height="30" as="geometry"/>
                </mxCell>
                <mxCell id="376" value="" style="rounded=0;whiteSpace=wrap;html=1;fontSize=14;container=1;" parent="374" vertex="1">
                    <mxGeometry x="10" y="45" width="260" height="40" as="geometry"/>
                </mxCell>
                <mxCell id="377" value="" style="triangle;whiteSpace=wrap;html=1;fontSize=14;direction=west;" parent="376" vertex="1">
                    <mxGeometry x="10" y="10" width="20" height="20" as="geometry"/>
                </mxCell>
                <mxCell id="378" value="" style="rounded=0;whiteSpace=wrap;html=1;fontSize=14;container=1;" parent="374" vertex="1">
                    <mxGeometry x="100" y="460" width="80" height="30" as="geometry"/>
                </mxCell>
                <mxCell id="379" value="Confirm" style="text;html=1;strokeColor=none;fillColor=none;align=center;verticalAlign=middle;whiteSpace=wrap;rounded=0;fontSize=14;" parent="378" vertex="1">
                    <mxGeometry x="4" width="71.99999999999999" height="30" as="geometry"/>
                </mxCell>
                <mxCell id="380" value="&lt;font style=&quot;font-size: 24px;&quot;&gt;Bill info&lt;/font&gt;" style="text;html=1;strokeColor=none;fillColor=none;align=center;verticalAlign=middle;whiteSpace=wrap;rounded=0;" parent="374" vertex="1">
                    <mxGeometry x="40" y="120" width="200" height="200" as="geometry"/>
                </mxCell>
                <mxCell id="382" style="edgeStyle=none;html=1;exitX=1;exitY=0.5;exitDx=0;exitDy=0;entryX=-0.001;entryY=0.214;entryDx=0;entryDy=0;entryPerimeter=0;fontSize=24;" parent="1" source="372" target="374" edge="1">
                    <mxGeometry relative="1" as="geometry"/>
                </mxCell>
            </root>
        </mxGraphModel>
    </diagram>
</mxfile>